<svg xmlns="http://www.w3.org/2000/svg" fill="none" viewBox="0 0 24 24" stroke-width="1.5" stroke="currentColor" aria-hidden="true">
  <path stroke-linecap="round" stroke-linejoin="round" d="M20.359 14.159c1.161-1.548.484-3.87 0-4.354h-.484m.484 4.354c-.497.62-.886 1.127-.968 1.935-.072.714-.12.755 0 1.451.169.97.713 1.845.968 2.419H3.427a14.36 14.36 0 01-.387-2.419c-.058-.789-.048-.814 0-1.451.076-.997.244-1.506.387-1.935m16.932 0h-2.39m-14.542 0c-.322-.806-.774-3.58 0-4.354H4.88M3.427 14.16h4.41M4.88 9.805c.483-.645 1.16-1.741 0-2.902h1.45M4.88 9.805h2.959m12.037 0c.774-1.16.323-2.257 0-2.902h-.484m.484 2.902h-1.907M6.33 6.903c-.323-.645-.484-2.42 0-2.903H19.39c.323.323.774 1.742 0 2.903m-13.061 0H19.39M7.838 14.159V9.805m0 4.354h2.418M7.838 9.805h2.418m0 4.354V9.805m0 4.354h5.321m-5.32-4.354h5.32m0 4.354V9.805m0 4.354h2.391m-2.39-4.354h2.39m0 4.354V9.805M7.5 17h8"/>
</svg>
