<svg xmlns="http://www.w3.org/2000/svg" fill="none" viewBox="0 0 24 24" stroke-width="1.5" stroke="currentColor" aria-hidden="true">
  <path stroke-linecap="round" d="M7.584 13.167c1.06.515 1.629.486 2.605 0m4.101.459c1.018.607 1.588.646 2.606 0m-3.55-5.814h2.606c.434 0-3.04 2.605-2.606 2.605h2.606M18.357 4h2.605c.435 0-3.04 2.605-2.605 2.605h2.605m-1.46 6.104a8.25 8.25 0 11-16.502 0 8.25 8.25 0 0116.501 0zm-5.284 4.584c0 .863-.29.087-2.123.087-1.834 0-2.22.776-2.22-.087 0-.864 1.02-1.288 2.22-1.288 1.2 0 2.123.424 2.123 1.288z"/>
</svg>
